<?xml version="1.0" encoding="UTF-8"?>
<svg xmlns="http://www.w3.org/2000/svg" xmlns:xlink="http://www.w3.org/1999/xlink" version="1.1" x="0px" y="0px" viewBox="0 0 272.02 41.59" style="enable-background:new 0 0 272.02 41.59;" xml:space="preserve">
<style type="text/css">
	.st0{fill:#231F20;}
	.st1{fill:#1C2B39;}
	.st2{fill:#80BC00;}
	.st3{fill:#FFFFFF;}
	.st4{fill:none;}
	.st5{fill:#97D700;}
</style>
<g id="Layer_1">
</g>
<g id="Guides">
	<g>
		<path class="st3" d="M75.44,26.21h-4.75v8.52h-6.25V6.33h11.61c6.78,0,10.88,4.02,10.88,9.82v0.08    C86.92,22.81,81.81,26.21,75.44,26.21z M80.59,16.27c0-2.8-1.95-4.3-5.07-4.3h-4.83v8.68h4.95c3.12,0,4.95-1.87,4.95-4.3V16.27z"></path>
		<path class="st3" d="M109.85,34.74l-2.6-6.37H95.24l-2.6,6.37h-6.37L98.45,6.13h5.76l12.17,28.61H109.85z M101.25,13.64    l-3.77,9.21h7.55L101.25,13.64z"></path>
		<path class="st3" d="M140.69,34.74l-13.76-18.06v18.06h-6.17V6.33h5.76l13.31,17.49V6.33h6.17v28.41H140.69z"></path>
		<path class="st3" d="M165.69,12.09v22.64h-6.25V12.09h-8.64V6.33h23.54v5.76H165.69z"></path>
		<path class="st3" d="M196.9,34.74v-11.4h-11.52v11.4h-6.25V6.33h6.25v11.24h11.52V6.33h6.25v28.41H196.9z"></path>
		<path class="st3" d="M209.97,34.74V6.33h21.43v5.56h-15.22v5.76h13.39v5.56h-13.39v5.96h15.42v5.56H209.97z"></path>
		<path class="st3" d="M254.4,34.74l-6.09-9.09h-4.91v9.09h-6.25V6.33h12.99c6.7,0,10.71,3.53,10.71,9.37v0.08    c0,4.59-2.48,7.47-6.09,8.81l6.94,10.14H254.4z M254.52,16.03c0-2.68-1.87-4.06-4.91-4.06h-6.21v8.16h6.33    c3.04,0,4.79-1.62,4.79-4.02V16.03z"></path>
	</g>
	<g>
		<path class="st3" d="M262.58,9.38h-0.63V7.17h-0.83V6.61h2.28v0.56h-0.83V9.38z M265.4,8.72h-0.05l-0.76-1.21v1.87h-0.59V6.61    h0.67l0.73,1.17l0.73-1.17h0.65v2.77h-0.59V7.51L265.4,8.72z"></path>
	</g>
	<path class="st4" d="M17.72,13.46c-0.33,0.04-0.64,0.06-0.93,0.06c-1.05,0-1.83-0.26-2.34-0.77c-0.82-0.84-0.85-2.32-0.08-4.41   l0.24-0.66l0.02,0.7c0.08,3.19,2.5,3.74,4.64,4.24c0.18,0.04,0.35,0.08,0.52,0.12l0.44,0.11L19.79,13   C19.76,13.01,18.84,13.33,17.72,13.46z"></path>
	<path class="st3" d="M20.23,12.85l-0.44-0.11c-0.17-0.04-0.34-0.08-0.52-0.12c-2.14-0.49-4.56-1.05-4.64-4.24l-0.02-0.7l-0.24,0.66   c-0.77,2.09-0.74,3.57,0.08,4.41c0.51,0.51,1.29,0.77,2.34,0.77c0.29,0,0.6-0.02,0.93-0.06c1.12-0.13,2.03-0.45,2.07-0.47   L20.23,12.85z"></path>
	<path class="st4" d="M20.22,12.85l-0.44-0.11c-0.17-0.04-0.34-0.08-0.52-0.12c-2.14-0.49-4.56-1.05-4.64-4.24l-0.02-0.7l-0.24,0.66   c-0.77,2.09-0.74,3.57,0.08,4.41c0.51,0.51,1.29,0.77,2.34,0.77c0.29,0,0.6-0.02,0.93-0.06c1.12-0.14,2.03-0.45,2.07-0.47   L20.22,12.85z"></path>
	<path class="st3" d="M7.18,23.17c5.22-2.27,8.86-2.56,9.01-2.57l2.37-0.17l-2.37-0.2c-5.75-0.49-10.3-0.35-16.15,1.56c0,0,0,0,0,0   c0.07,1.67,0.34,3.29,0.8,4.84c0,0,0,0,0.01,0C2.89,25.29,5.01,24.12,7.18,23.17z"></path>
	<path class="st3" d="M38.25,15.28c-1.73-1.16-6.29-0.47-6.29-0.47s3.5,1.12,4.18,2.53c0.67-0.31,1.96-0.86,2.55-1.63l0,0   c0,0,0,0,0,0c-3.25-7.86-13.25-1.86-13.25-1.86S33.33,10.84,38.25,15.28z"></path>
	<path class="st3" d="M20.47,32.25c1.16,0.04,1.94,0.51,2.45,1.49c1.71,3.3,4.8,4.42,6.96,3.83c0.9-0.24,1.58-0.78,1.91-1.49   c2.02-0.61,2.93-2.04,3.44-3.07l0.68-1.38c0.05-0.1,0.04-0.23-0.02-0.32c-0.06-0.1-0.17-0.15-0.29-0.15l-1.92,0.09   c-0.78,0.04-2.39,0.12-2.62-0.26c-0.54-0.9-0.95-3.32,0.15-4.91c1.25-1.8,4.16-2.37,8.44-1.63c-0.07,0.46-0.5,1.63-1.28,2.72   l-1.57,2.2c-0.08,0.11-0.08,0.27,0,0.38c0.08,0.11,0.23,0.16,0.36,0.12l2.58-0.8c1.47-0.46,3.32-1.18,4.67-2.69   c0.46,0.01,0.91-0.16,1.33-0.48l0.01-0.01l0.05-0.05c0,0,0.01-0.01,0.01-0.01c0.11-0.1,0.24-0.22,0.38-0.34l0.01-0.01   c1.24-1.08,3.54-3.1,2.46-5.71c0-0.01-0.01-0.01-0.01-0.02l-0.05-0.11c0-0.01-0.01-0.01-0.01-0.02c-1.23-2.11-3.4-4.88-6.8-6.12   c-0.92-2.33-3.62-4.17-8.02-5.46c-3.38-0.99-7.73-1.67-12.94-2.02c-1.29-0.2-2.67-0.69-3.78-1.33c-1.28-0.74-2.72-0.83-3.85-0.25   c-1.31,0.68-2.18,2.16-2.56,4.42C9.2,8.95,6.29,9.17,3.59,9.39c0,0-0.01,0.01-0.01,0.01c-0.64,0.94-1.21,1.93-1.69,2.97   c0,0,0,0,0.01,0c4.34-1.12,8.87-1.98,9.83-1.99c0.17,0,0.31-0.13,0.32-0.29c0.22-2.27,0.87-3.73,1.86-4.25   c0.98-0.5,2.05,0.03,2.36,0.21c1.29,0.74,2.89,1.3,4.38,1.53c0.01,0,0.02,0,0.03,0c16.04,1.05,19.3,4.82,19.82,6.97   c0.03,0.11,0.11,0.2,0.22,0.24c3.24,0.96,5.33,3.57,6.51,5.6c0.63,1.56-0.98,2.98-2.05,3.91c-0.15,0.13-0.29,0.25-0.41,0.37   c-0.13,0.1-0.23,0.14-0.32,0.14c-0.49-0.29-1.03-0.79-1.15-1.58c-0.49,0.88-0.25,1.53,0.09,1.95c-0.86,1.05-2.05,1.67-3.23,2.1   c0.61-1.05,1.32-2.63,0.96-3.57c-0.15-0.39-0.47-0.65-0.91-0.75c0,0-0.01,0-0.01,0c-6.4-1.15-9.11,0.58-10.25,2.24   c-1.52,2.2-1.02,5.24-0.21,6.6c0.68,1.13,2.33,1.1,3.84,1.02c-0.68,1.12-1.55,1.7-2.84,1.91c-0.16,0.03-0.28,0.17-0.27,0.34   c0.02,0.46-0.34,0.83-0.97,1c-1.26,0.34-3.68-0.18-5.16-3.05c-0.05-0.1-0.11-0.19-0.17-0.28c-0.67-1.27-1.91-4.07-1.52-6.78   c-1.52,1.31-1.17,3.72-0.74,5.24c-0.21-0.06-0.43-0.1-0.67-0.14c-2.16-0.32-5.16,0.32-8.45,1.79C10.69,33.78,8.7,34.97,7,36.27   c0,0,0,0,0,0c0.97,0.85,2.03,1.61,3.15,2.26c0,0,0,0,0,0C13.27,34.84,17.59,32.16,20.47,32.25z"></path>
	<path class="st1" d="M12.76,32.85c3.29-1.47,6.29-2.11,8.45-1.79c0.23,0.03,0.46,0.08,0.67,0.14c-0.43-1.53-0.78-3.93,0.74-5.24   c-0.39,2.71,0.85,5.51,1.52,6.78c0.06,0.09,0.12,0.19,0.17,0.28c1.49,2.86,3.9,3.39,5.16,3.05c0.63-0.17,1-0.55,0.97-1   c-0.01-0.17,0.11-0.31,0.27-0.34c1.29-0.21,2.17-0.79,2.84-1.91c-1.51,0.08-3.16,0.11-3.84-1.02c-0.82-1.36-1.31-4.4,0.21-6.6   c1.14-1.65,3.85-3.39,10.25-2.24c0,0,0.01,0,0.01,0c0.45,0.1,0.76,0.36,0.91,0.75c0.36,0.94-0.35,2.52-0.96,3.57   c1.18-0.43,2.37-1.05,3.23-2.1c-0.34-0.42-0.58-1.07-0.09-1.95c0.12,0.79,0.66,1.28,1.15,1.58c0.09,0,0.19-0.04,0.32-0.14   c0.12-0.11,0.26-0.24,0.41-0.37c1.07-0.94,2.68-2.35,2.05-3.91c-1.18-2.03-3.27-4.64-6.51-5.6c-0.11-0.03-0.2-0.12-0.22-0.24   c-0.52-2.15-3.78-5.92-19.82-6.97c-0.01,0-0.02,0-0.03,0c-1.49-0.23-3.09-0.78-4.38-1.53c-0.31-0.18-1.38-0.71-2.36-0.21   c-1,0.51-1.64,1.98-1.86,4.25c-0.02,0.17-0.16,0.29-0.32,0.29c-0.95,0.01-5.47,0.87-9.81,1.98c-0.01,0-0.02,0-0.02,0   c-1.2,2.6-1.87,5.49-1.87,8.54c0,0.3,0.01,0.59,0.02,0.89c0.01,0,0.02,0,0.02-0.01c5.84-1.9,10.38-2.04,16.13-1.56l2.37,0.2   l-2.37,0.17c-0.15,0.01-3.8,0.3-9.01,2.57c-2.17,0.95-4.29,2.11-6.33,3.46c0,0-0.01,0-0.01,0.01c1.1,3.78,3.27,7.11,6.16,9.63   c0,0,0.01-0.01,0.01-0.01C8.71,34.96,10.69,33.77,12.76,32.85z M38.69,15.71C38.69,15.71,38.69,15.7,38.69,15.71L38.69,15.71   c-0.58,0.77-1.88,1.32-2.55,1.63c-0.68-1.41-4.18-2.53-4.18-2.53s4.56-0.69,6.29,0.47c-4.92-4.44-12.81-1.43-12.81-1.43   S35.44,7.85,38.69,15.71z M17.72,13.46c-0.33,0.04-0.64,0.06-0.93,0.06c-1.05,0-1.83-0.26-2.34-0.77   c-0.82-0.84-0.85-2.32-0.08-4.41l0.24-0.66l0.02,0.7c0.08,3.19,2.5,3.74,4.64,4.24c0.18,0.04,0.35,0.08,0.52,0.12l0.44,0.11   L19.79,13C19.75,13.01,18.84,13.33,17.72,13.46z"></path>
	<g>
		<path class="st2" d="M14.63,8.39l-0.02-0.7l-0.24,0.66c-0.77,2.09-0.74,3.57,0.08,4.41c0.51,0.51,1.29,0.77,2.34,0.77    c0.29,0,0.6-0.02,0.93-0.06c1.12-0.14,2.03-0.45,2.07-0.47l0.43-0.15l-0.44-0.11c-0.17-0.04-0.34-0.08-0.52-0.12    C17.13,12.13,14.7,11.57,14.63,8.39z"></path>
		<path class="st5" d="M32.2,0.51H20.42c-6.99,0-13.16,3.52-16.83,8.88c2.71-0.22,5.61-0.44,7.05-0.53    c0.39-2.25,1.25-3.74,2.56-4.42c1.13-0.58,2.57-0.49,3.85,0.25c1.11,0.64,2.49,1.13,3.78,1.33c5.21,0.34,9.57,1.02,12.94,2.02    c4.4,1.3,7.1,3.13,8.02,5.46c3.39,1.24,5.57,4.01,6.8,6.12c0,0.01,0.01,0.01,0.01,0.02l0.05,0.11c0,0.01,0.01,0.01,0.01,0.02    c1.08,2.61-1.22,4.62-2.46,5.71l-0.01,0.01c-0.14,0.12-0.27,0.23-0.38,0.34c0,0-0.01,0.01-0.01,0.01l-0.05,0.05l-0.01,0.01    c-0.41,0.33-0.87,0.49-1.33,0.48c-1.35,1.51-3.2,2.23-4.67,2.69l-2.58,0.8c-0.13,0.04-0.28-0.01-0.36-0.12    c-0.08-0.11-0.08-0.27,0-0.38l1.57-2.2c0.78-1.09,1.21-2.25,1.28-2.72c-4.28-0.73-7.19-0.17-8.44,1.63    c-1.1,1.6-0.69,4.01-0.15,4.91c0.23,0.38,1.84,0.3,2.62,0.26l1.92-0.09c0.12-0.01,0.22,0.05,0.29,0.15    c0.06,0.1,0.07,0.22,0.02,0.32l-0.68,1.38c-0.51,1.03-1.42,2.46-3.44,3.07c-0.33,0.71-1.02,1.25-1.91,1.49    c-2.16,0.59-5.25-0.54-6.96-3.83c-0.51-0.98-1.28-1.45-2.45-1.49c-2.88-0.1-7.2,2.59-10.32,6.28l0,0    c3.02,1.76,6.52,2.78,10.27,2.78H32.2c11.27,0,20.4-9.13,20.4-20.4C52.6,9.64,43.46,0.51,32.2,0.51z"></path>
	</g>
	<path class="st3" d="M20.22,12.85l-0.44-0.11c-0.17-0.04-0.34-0.08-0.52-0.12c-2.14-0.49-4.56-1.05-4.64-4.24l-0.02-0.7l-0.24,0.66   c-0.77,2.09-0.74,3.57,0.08,4.41c0.51,0.51,1.29,0.77,2.34,0.77c0.29,0,0.6-0.02,0.93-0.06c1.12-0.13,2.03-0.45,2.07-0.47   L20.22,12.85z"></path>
</g>
</svg>
